<svg xmlns="http://www.w3.org/2000/svg" version="1.1" width="128" height="128" viewBox="0 0 128 128">
  <g transform="matrix(0.8046875, 0, 0, 0.8046875, 12.333870967741937, 12.333870967741937)">
    <g viewBox="0 0 155 155" data-background-color="#fafafa" preserveAspectRatio="xMidYMid meet">
      <g transform="matrix(1, 0, 0, 1, 47.746371, 52.992679254646845)">
        <svg viewBox="0 0 59.00725799999999 48.51464149070631" height="48.51464149070631" width="59.00725799999999">
          <g>
            <svg viewBox="0 0 59.00725799999999 48.51464149070631" height="48.51464149070631" width="59.00725799999999">
              <g>
                <svg viewBox="0 0 59.00725799999999 48.51464149070631" height="48.51464149070631" width="59.00725799999999">
                  <g id="textblocktransform">
                    <svg viewBox="0 0 59.00725799999999 48.51464149070631" height="48.51464149070631" width="59.00725799999999" id="textblock">
                      <g>
                        <svg viewBox="0 0 59.00725799999999 48.51464149070631" height="48.51464149070631" width="59.00725799999999">
                          <g transform="matrix(1, 0, 0, 1, 0, 0)">
                            <svg width="59.00725799999999" viewBox="2.86 -32.4 39.4 32.4" height="48.51464149070631" data-palette-color="#130912">
                              <path d="M22.09 0L2.88-32.4 14.36-32.4 23.05-17.99 29.88-29.71 29.88-13.4 22.09 0ZM42.26 0L31.47 0 31.47-32.4 42.26-32.4 42.26 0ZM12.94 0L2.86 0 2.86-29.39 12.94-12.48 12.94 0Z" opacity="1" transform="matrix(1, 0, 0, 1, 0, 0)" fill="#ffffff" class="wordmark-text-0" data-fill-palette-color="primary" id="text-0"></path>
                            </svg>
                          </g>
                        </svg>
                      </g>
                    </svg>
                  </g>
                </svg>
              </g>
            </svg>
          </g>
        </svg>
      </g>
      <g>
        <path d="M57.131 41.54A29.504 29.504 0 0 1 97.369 41.54L92.994 41.54A25.129 25.129 0 0 0 61.506 41.54L57.131 41.54M57.131 112.96A29.504 29.504 0 0 0 97.369 112.96L92.994 112.96A25.129 25.129 0 0 1 61.506 112.96L57.131 112.96" fill="#ffffff" stroke="transparent" data-fill-palette-color="tertiary"></path>
      </g>
    </g>
  </g>
</svg>
